<?xml version="1.0" standalone="no"?>
<!DOCTYPE svg PUBLIC "-//W3C//DTD SVG 20010904//EN"
 "http://www.w3.org/TR/2001/REC-SVG-20010904/DTD/svg10.dtd">
<svg version="1.0" xmlns="http://www.w3.org/2000/svg"
 width="500.000000pt" height="500.000000pt" viewBox="0 0 500.000000 500.000000"
 preserveAspectRatio="xMidYMid meet">

<g transform="translate(0.000000,500.000000) scale(0.100000,-0.100000)"
fill="#000000" stroke="none">
<path d="M1457 2820 c-46 -9 -84 -35 -114 -80 -83 -121 5 -279 155 -280 84 0
161 42 128 69 -11 9 -22 8 -52 -9 -47 -25 -88 -26 -134 -2 -88 44 -106 151
-37 219 46 47 117 57 171 25 29 -17 37 -18 46 -7 32 39 -76 82 -163 65z"/>
<path d="M1825 2823 c-11 -2 -30 -6 -42 -9 -33 -6 -94 -63 -109 -101 -47 -111
28 -239 145 -251 72 -7 117 5 158 41 65 57 81 143 42 224 -31 64 -125 111
-194 96z m102 -63 c87 -53 83 -188 -6 -238 -45 -25 -79 -28 -124 -8 -52 22
-79 59 -85 114 -8 89 48 152 138 152 27 0 58 -8 77 -20z"/>
<path d="M2100 2640 l0 -180 25 0 c24 0 25 3 25 55 l0 55 63 0 c118 1 186 56
174 142 -11 79 -64 108 -197 108 l-90 0 0 -180z m193 129 c48 -22 60 -83 24
-125 -20 -23 -33 -27 -95 -32 l-72 -5 0 87 0 86 60 0 c32 0 70 -5 83 -11z"/>
<path d="M2460 2707 c68 -111 70 -115 70 -180 0 -65 1 -67 25 -67 24 0 25 3
25 61 0 58 4 68 67 173 36 61 68 114 70 119 2 4 -6 7 -19 7 -18 0 -34 -19 -78
-90 -30 -50 -57 -90 -61 -90 -4 0 -31 41 -60 90 -47 79 -57 90 -81 90 l-27 0
69 -113z"/>
<path d="M1401 2293 c-37 -25 -20 -73 25 -73 13 0 26 5 30 11 3 6 -1 10 -12 9
-38 -4 -45 0 -42 23 2 15 10 22 25 22 30 1 38 11 14 18 -11 2 -29 -2 -40 -10z"/>
<path d="M1560 2290 c-24 -24 -25 -34 -4 -54 32 -32 79 -10 72 35 -5 33 -44
43 -68 19z m54 -17 c4 -9 0 -23 -9 -32 -13 -14 -17 -14 -31 1 -9 9 -14 24 -11
32 8 21 43 20 51 -1z"/>
<path d="M2992 2299 c-24 -9 -30 -47 -10 -67 17 -17 58 -15 65 3 8 23 -5 31
-20 12 -15 -21 -40 -7 -35 19 2 12 12 19 25 19 12 0 25 3 28 7 10 10 -30 15
-53 7z"/>
<path d="M3901 2293 c-37 -25 -20 -73 25 -73 13 0 26 5 30 11 3 6 -1 10 -12 9
-38 -4 -45 0 -42 23 2 15 10 22 25 22 30 1 38 11 14 18 -11 2 -29 -2 -40 -10z"/>
<path d="M1730 2258 c0 -24 4 -38 8 -31 4 6 20 17 35 22 39 15 33 45 -11 49
-32 3 -32 3 -32 -40z m50 17 c0 -8 -9 -15 -20 -15 -11 0 -20 7 -20 15 0 8 9
15 20 15 11 0 20 -7 20 -15z"/>
<path d="M1894 2278 c9 -12 16 -30 16 -40 0 -26 17 -22 23 5 2 12 8 31 12 42
l7 20 -17 -20 c-15 -19 -17 -19 -26 -2 -6 9 -15 17 -20 17 -6 0 -3 -10 5 -22z"/>
<path d="M2054 2263 c16 -45 31 -52 40 -18 7 29 26 25 26 -6 0 -27 27 -24 34
5 3 13 9 31 12 40 3 9 2 16 -3 16 -5 0 -14 -12 -20 -27 l-10 -28 -8 28 c-4 15
-11 27 -16 27 -5 0 -14 -12 -20 -27 l-11 -28 -10 28 c-5 15 -14 27 -18 27 -5
0 -3 -17 4 -37z"/>
<path d="M2260 2261 c0 -23 5 -41 10 -41 6 0 10 5 10 10 0 6 7 10 15 10 8 0
15 -4 15 -10 0 -5 4 -10 8 -10 4 0 7 17 7 38 0 34 -2 37 -32 40 -32 3 -33 2
-33 -37z m53 14 c1 -5 -6 -11 -15 -13 -11 -2 -18 3 -18 13 0 17 30 18 33 0z"/>
<path d="M2433 2260 c0 -25 2 -35 4 -22 2 12 2 32 0 45 -2 12 -4 2 -4 -23z"/>
<path d="M2542 2293 c11 -3 18 -17 21 -41 l4 -37 1 37 c1 25 7 38 20 41 9 3
-1 5 -23 5 -22 0 -32 -2 -23 -5z"/>
<path d="M2690 2260 c0 -22 5 -40 10 -40 6 0 10 18 10 40 0 22 -4 40 -10 40
-5 0 -10 -18 -10 -40z"/>
<path d="M2800 2260 c0 -22 5 -40 10 -40 6 0 10 12 10 26 l0 27 21 -27 c29
-36 39 -33 39 14 0 22 -4 40 -10 40 -5 0 -10 -10 -10 -22 l0 -21 -23 21 c-32
30 -37 28 -37 -18z"/>
<path d="M3250 2260 c0 -22 5 -40 10 -40 6 0 10 18 10 40 0 22 -4 40 -10 40
-5 0 -10 -18 -10 -40z"/>
<path d="M3371 2258 c1 -33 3 -37 8 -19 6 22 7 22 21 6 13 -16 15 -16 27 1 12
17 13 16 13 -4 0 -12 5 -22 10 -22 6 0 10 18 10 40 0 43 -13 52 -30 20 -6 -11
-15 -20 -20 -20 -5 0 -12 9 -15 20 -11 35 -25 22 -24 -22z"/>
<path d="M3560 2258 c0 -30 3 -39 9 -29 5 8 17 16 27 17 47 7 43 54 -6 54 -29
0 -30 -2 -30 -42z m50 17 c0 -8 -9 -15 -20 -15 -11 0 -20 7 -20 15 0 8 9 15
20 15 11 0 20 -7 20 -15z"/>
<path d="M3726 2264 c-9 -20 -14 -39 -10 -43 4 -3 9 0 11 7 3 6 15 12 28 12
13 0 25 -6 28 -12 2 -7 7 -11 10 -8 9 8 -24 80 -37 80 -7 0 -20 -16 -30 -36z
m33 -13 c-15 -5 -22 6 -14 19 6 9 10 9 16 -1 5 -8 4 -15 -2 -18z"/>
<path d="M4052 2293 c11 -3 18 -17 21 -41 l4 -37 1 37 c1 25 7 38 20 41 9 3
-1 5 -23 5 -22 0 -32 -2 -23 -5z"/>
<path d="M2243 2129 c-25 -9 -31 -47 -11 -67 15 -15 58 -16 58 -2 0 6 -6 10
-12 9 -30 -4 -39 2 -36 24 2 16 9 22 26 21 12 0 22 3 22 7 0 12 -24 17 -47 8z"/>
<path d="M2733 2129 c-25 -9 -31 -47 -11 -67 15 -15 58 -16 58 -2 0 6 -6 10
-12 9 -30 -4 -39 2 -36 24 2 16 9 22 26 21 12 0 22 3 22 7 0 12 -24 17 -47 8z"/>
<path d="M2392 2090 c-1 -37 1 -41 9 -22 10 27 45 26 43 -1 -1 -9 2 -17 7 -17
5 0 9 18 9 40 0 22 -4 40 -10 40 -5 0 -9 -6 -7 -12 4 -21 -41 -22 -46 -1 -3
10 -5 -2 -5 -27z"/>
<path d="M2560 2090 c0 -39 1 -40 33 -39 23 1 26 3 10 6 -13 2 -23 11 -23 18
0 7 10 16 23 18 l22 4 -22 2 c-13 0 -23 5 -23 10 0 5 10 12 23 14 16 3 13 5
-10 6 -32 1 -33 0 -33 -39z"/>
<path d="M2880 2090 c0 -22 5 -40 10 -40 6 0 10 7 10 15 0 20 17 19 29 -2 5
-10 13 -15 17 -10 4 4 0 15 -10 26 -15 16 -15 19 -1 31 9 7 13 15 10 18 -3 3
-14 -3 -25 -13 -18 -16 -20 -16 -20 -2 0 10 -4 17 -10 17 -5 0 -10 -18 -10
-40z"/>
<path d="M3040 2090 c0 -39 1 -40 33 -39 23 1 26 3 10 6 -13 2 -23 11 -23 18
0 7 10 16 23 18 l22 4 -22 2 c-13 0 -23 5 -23 10 0 5 10 12 23 14 16 3 13 5
-10 6 -32 1 -33 0 -33 -39z"/>
<path d="M3200 2091 c0 -23 5 -41 10 -41 6 0 10 7 10 17 0 15 1 15 18 0 25
-23 27 -22 27 21 0 34 -2 37 -32 40 -32 3 -33 2 -33 -37z m50 14 c0 -8 -7 -15
-15 -15 -8 0 -15 7 -15 15 0 8 7 15 15 15 8 0 15 -7 15 -15z"/>
</g>
</svg>
